<mxfile host="app.diagrams.net" modified="2022-08-08T14:23:35.142Z" agent="5.0 (Windows NT 10.0; Win64; x64) AppleWebKit/537.36 (KHTML, like Gecko) Chrome/103.0.0.0 Safari/537.36" etag="LhI_QuJFBI5pjqR8AUeK" version="20.2.3" type="github">
  <diagram id="mS_2nCky6PFFIFaMpYo8" name="페이지-1">
    <mxGraphModel dx="731" dy="688" grid="1" gridSize="10" guides="1" tooltips="1" connect="1" arrows="1" fold="1" page="1" pageScale="1" pageWidth="827" pageHeight="1169" math="0" shadow="0">
      <root>
        <mxCell id="0" />
        <mxCell id="1" parent="0" />
        <mxCell id="uIS0CYj_AaMQ-7YFan9M-18" style="edgeStyle=none;rounded=0;orthogonalLoop=1;jettySize=auto;html=1;exitX=1;exitY=0.3333333333333333;exitDx=0;exitDy=0;exitPerimeter=0;entryX=0;entryY=0.5;entryDx=0;entryDy=0;endArrow=none;endFill=0;" edge="1" parent="1" source="uIS0CYj_AaMQ-7YFan9M-1" target="uIS0CYj_AaMQ-7YFan9M-5">
          <mxGeometry relative="1" as="geometry" />
        </mxCell>
        <mxCell id="uIS0CYj_AaMQ-7YFan9M-19" style="edgeStyle=none;rounded=0;orthogonalLoop=1;jettySize=auto;html=1;exitX=1;exitY=0.3333333333333333;exitDx=0;exitDy=0;exitPerimeter=0;entryX=0;entryY=0.5;entryDx=0;entryDy=0;endArrow=none;endFill=0;" edge="1" parent="1" source="uIS0CYj_AaMQ-7YFan9M-1" target="uIS0CYj_AaMQ-7YFan9M-6">
          <mxGeometry relative="1" as="geometry" />
        </mxCell>
        <mxCell id="uIS0CYj_AaMQ-7YFan9M-1" value="Actor" style="shape=umlActor;verticalLabelPosition=bottom;verticalAlign=top;html=1;" vertex="1" parent="1">
          <mxGeometry x="20" y="420" width="30" height="60" as="geometry" />
        </mxCell>
        <mxCell id="uIS0CYj_AaMQ-7YFan9M-2" value="게시판 서비스" style="shape=umlFrame;whiteSpace=wrap;html=1;width=90;height=20;" vertex="1" parent="1">
          <mxGeometry x="110" y="220" width="640" height="610" as="geometry" />
        </mxCell>
        <mxCell id="uIS0CYj_AaMQ-7YFan9M-16" style="rounded=0;orthogonalLoop=1;jettySize=auto;html=1;exitX=0;exitY=0.5;exitDx=0;exitDy=0;entryX=1;entryY=0.3333333333333333;entryDx=0;entryDy=0;entryPerimeter=0;endArrow=none;endFill=0;" edge="1" parent="1" source="uIS0CYj_AaMQ-7YFan9M-3" target="uIS0CYj_AaMQ-7YFan9M-1">
          <mxGeometry relative="1" as="geometry" />
        </mxCell>
        <mxCell id="uIS0CYj_AaMQ-7YFan9M-3" value="회원 가입" style="rounded=1;whiteSpace=wrap;html=1;arcSize=40;fontColor=#000000;fillColor=#ffffc0;strokeColor=#ff0000;" vertex="1" parent="1">
          <mxGeometry x="160" y="400" width="120" height="40" as="geometry" />
        </mxCell>
        <mxCell id="uIS0CYj_AaMQ-7YFan9M-24" style="edgeStyle=none;rounded=0;orthogonalLoop=1;jettySize=auto;html=1;exitX=1;exitY=0.5;exitDx=0;exitDy=0;entryX=0.5;entryY=1;entryDx=0;entryDy=0;dashed=1;endArrow=classic;endFill=1;" edge="1" parent="1" source="uIS0CYj_AaMQ-7YFan9M-5" target="uIS0CYj_AaMQ-7YFan9M-7">
          <mxGeometry relative="1" as="geometry" />
        </mxCell>
        <mxCell id="uIS0CYj_AaMQ-7YFan9M-5" value="게시판 보기&lt;span style=&quot;color: rgba(0, 0, 0, 0); font-family: monospace; font-size: 0px; text-align: start;&quot;&gt;%3CmxGraphModel%3E%3Croot%3E%3CmxCell%20id%3D%220%22%2F%3E%3CmxCell%20id%3D%221%22%20parent%3D%220%22%2F%3E%3CmxCell%20id%3D%222%22%20value%3D%22%ED%9A%8C%EC%9B%90%20%EA%B0%80%EC%9E%85%22%20style%3D%22rounded%3D1%3BwhiteSpace%3Dwrap%3Bhtml%3D1%3BarcSize%3D40%3BfontColor%3D%23000000%3BfillColor%3D%23ffffc0%3BstrokeColor%3D%23ff0000%3B%22%20vertex%3D%221%22%20parent%3D%221%22%3E%3CmxGeometry%20x%3D%22120%22%20y%3D%22290%22%20width%3D%22120%22%20height%3D%2240%22%20as%3D%22geometry%22%2F%3E%3C%2FmxCell%3E%3C%2Froot%3E%3C%2FmxGraphModel%3E&lt;/span&gt;" style="rounded=1;whiteSpace=wrap;html=1;arcSize=50;fontColor=#000000;fillColor=#ffffc0;strokeColor=#ff0000;" vertex="1" parent="1">
          <mxGeometry x="160" y="505" width="120" height="40" as="geometry" />
        </mxCell>
        <mxCell id="uIS0CYj_AaMQ-7YFan9M-26" style="edgeStyle=none;rounded=0;orthogonalLoop=1;jettySize=auto;html=1;exitX=1;exitY=0.5;exitDx=0;exitDy=0;entryX=0.5;entryY=1;entryDx=0;entryDy=0;dashed=1;endArrow=classic;endFill=1;" edge="1" parent="1" source="uIS0CYj_AaMQ-7YFan9M-6" target="uIS0CYj_AaMQ-7YFan9M-7">
          <mxGeometry relative="1" as="geometry" />
        </mxCell>
        <mxCell id="uIS0CYj_AaMQ-7YFan9M-6" value="게시글 보기" style="rounded=1;whiteSpace=wrap;html=1;arcSize=50;fontColor=#000000;fillColor=#ffffc0;strokeColor=#ff0000;" vertex="1" parent="1">
          <mxGeometry x="160" y="610" width="120" height="40" as="geometry" />
        </mxCell>
        <mxCell id="uIS0CYj_AaMQ-7YFan9M-17" style="edgeStyle=none;rounded=0;orthogonalLoop=1;jettySize=auto;html=1;exitX=0;exitY=0.5;exitDx=0;exitDy=0;entryX=1;entryY=0.3333333333333333;entryDx=0;entryDy=0;entryPerimeter=0;endArrow=none;endFill=0;" edge="1" parent="1" source="uIS0CYj_AaMQ-7YFan9M-7" target="uIS0CYj_AaMQ-7YFan9M-1">
          <mxGeometry relative="1" as="geometry" />
        </mxCell>
        <mxCell id="uIS0CYj_AaMQ-7YFan9M-20" value="&amp;lt;&amp;lt;include&amp;gt;&amp;gt;" style="edgeStyle=none;rounded=0;orthogonalLoop=1;jettySize=auto;html=1;exitX=1;exitY=0.5;exitDx=0;exitDy=0;entryX=0;entryY=0.5;entryDx=0;entryDy=0;endArrow=classic;endFill=1;dashed=1;" edge="1" parent="1" source="uIS0CYj_AaMQ-7YFan9M-7" target="uIS0CYj_AaMQ-7YFan9M-8">
          <mxGeometry relative="1" as="geometry" />
        </mxCell>
        <mxCell id="uIS0CYj_AaMQ-7YFan9M-7" value="회원 로그인&lt;br&gt;" style="rounded=1;whiteSpace=wrap;html=1;arcSize=50;fontColor=#000000;fillColor=#ffffc0;strokeColor=#ff0000;" vertex="1" parent="1">
          <mxGeometry x="250" y="290" width="120" height="40" as="geometry" />
        </mxCell>
        <mxCell id="uIS0CYj_AaMQ-7YFan9M-8" value="인증" style="rounded=1;whiteSpace=wrap;html=1;arcSize=50;fontColor=#000000;fillColor=#ffffc0;strokeColor=#ff0000;" vertex="1" parent="1">
          <mxGeometry x="540" y="290" width="120" height="40" as="geometry" />
        </mxCell>
        <mxCell id="uIS0CYj_AaMQ-7YFan9M-22" value="&amp;lt;&amp;lt;extend&amp;gt;&amp;gt;" style="edgeStyle=none;rounded=0;orthogonalLoop=1;jettySize=auto;html=1;exitX=0;exitY=0.5;exitDx=0;exitDy=0;entryX=1;entryY=0.5;entryDx=0;entryDy=0;endArrow=classic;endFill=1;dashed=1;" edge="1" parent="1" source="uIS0CYj_AaMQ-7YFan9M-9" target="uIS0CYj_AaMQ-7YFan9M-7">
          <mxGeometry relative="1" as="geometry" />
        </mxCell>
        <mxCell id="uIS0CYj_AaMQ-7YFan9M-9" value="로그인 실패" style="rounded=1;whiteSpace=wrap;html=1;arcSize=50;fontColor=#000000;fillColor=#ffffc0;strokeColor=#ff0000;" vertex="1" parent="1">
          <mxGeometry x="540" y="360" width="120" height="40" as="geometry" />
        </mxCell>
        <mxCell id="uIS0CYj_AaMQ-7YFan9M-27" style="edgeStyle=none;rounded=0;orthogonalLoop=1;jettySize=auto;html=1;exitX=0;exitY=0.5;exitDx=0;exitDy=0;entryX=1;entryY=0.5;entryDx=0;entryDy=0;dashed=1;endArrow=classic;endFill=1;" edge="1" parent="1" source="uIS0CYj_AaMQ-7YFan9M-10" target="uIS0CYj_AaMQ-7YFan9M-5">
          <mxGeometry relative="1" as="geometry" />
        </mxCell>
        <mxCell id="uIS0CYj_AaMQ-7YFan9M-10" value="게시판 정렬" style="rounded=1;whiteSpace=wrap;html=1;arcSize=50;fontColor=#000000;fillColor=#ffffc0;strokeColor=#ff0000;" vertex="1" parent="1">
          <mxGeometry x="390" y="440" width="120" height="40" as="geometry" />
        </mxCell>
        <mxCell id="uIS0CYj_AaMQ-7YFan9M-28" style="edgeStyle=none;rounded=0;orthogonalLoop=1;jettySize=auto;html=1;exitX=0;exitY=0.5;exitDx=0;exitDy=0;entryX=1;entryY=0.5;entryDx=0;entryDy=0;dashed=1;endArrow=classic;endFill=1;" edge="1" parent="1" source="uIS0CYj_AaMQ-7YFan9M-11" target="uIS0CYj_AaMQ-7YFan9M-5">
          <mxGeometry relative="1" as="geometry" />
        </mxCell>
        <mxCell id="uIS0CYj_AaMQ-7YFan9M-11" value="게시판 검색" style="rounded=1;whiteSpace=wrap;html=1;arcSize=50;fontColor=#000000;fillColor=#ffffc0;strokeColor=#ff0000;" vertex="1" parent="1">
          <mxGeometry x="390" y="530" width="120" height="40" as="geometry" />
        </mxCell>
        <mxCell id="uIS0CYj_AaMQ-7YFan9M-29" style="edgeStyle=none;rounded=0;orthogonalLoop=1;jettySize=auto;html=1;exitX=0;exitY=0.5;exitDx=0;exitDy=0;entryX=1;entryY=0.5;entryDx=0;entryDy=0;dashed=1;endArrow=classic;endFill=1;" edge="1" parent="1" source="uIS0CYj_AaMQ-7YFan9M-12" target="uIS0CYj_AaMQ-7YFan9M-6">
          <mxGeometry relative="1" as="geometry" />
        </mxCell>
        <mxCell id="uIS0CYj_AaMQ-7YFan9M-12" value="게시글 쓰기, 수정, 삭제" style="rounded=1;whiteSpace=wrap;html=1;arcSize=50;fontColor=#000000;fillColor=#ffffc0;strokeColor=#ff0000;" vertex="1" parent="1">
          <mxGeometry x="382" y="610" width="136" height="40" as="geometry" />
        </mxCell>
        <mxCell id="uIS0CYj_AaMQ-7YFan9M-30" style="edgeStyle=none;rounded=0;orthogonalLoop=1;jettySize=auto;html=1;exitX=0;exitY=0.5;exitDx=0;exitDy=0;dashed=1;endArrow=classic;endFill=1;" edge="1" parent="1" source="uIS0CYj_AaMQ-7YFan9M-14">
          <mxGeometry relative="1" as="geometry">
            <mxPoint x="280.0000000000001" y="630" as="targetPoint" />
          </mxGeometry>
        </mxCell>
        <mxCell id="uIS0CYj_AaMQ-7YFan9M-14" value="댓글 보기, 쓰기, &lt;br&gt;수정, 삭제" style="rounded=1;whiteSpace=wrap;html=1;arcSize=50;fontColor=#000000;fillColor=#ffffc0;strokeColor=#ff0000;" vertex="1" parent="1">
          <mxGeometry x="382" y="690" width="136" height="40" as="geometry" />
        </mxCell>
      </root>
    </mxGraphModel>
  </diagram>
</mxfile>
